PathFileType	4	(X/Y/Z)	Kaydara																																																																																																																									
DataRate	CameraRate	NumFrames	NumMarkers	Units	OrigDataRate	OrigDataStartFrame	OrigNumFrames																																																																																																																					
30	30	9	41	mm	30	55	104																																																																																																																					
Frame#	Time	EMLA_LFHD			EMLA_RFHD			EMLA_LBHD			EMLA_RBHD			EMLA_LFTShould			EMLA_RFTShould			EMLA_LRRShould			EMLA_RRRShould			EMLA_T10			EMLA_STRN			EMLA_TRUN			EMLA_LSHO			EMLA_LUPA			EMLA_LELB			EMLA_LFRM			EMLA_LWRA			EMLA_LWRB			EMLA_LFIN			EMLA_RSHO			EMLA_RUPA			EMLA_RELB			EMLA_RFRM			EMLA_RWRA			EMLA_RWRB			EMLA_RFIN			EMLA_LFWT			EMLA_RFWT			EMLA_LBWT			EMLA_RBWT			EMLA_LTHI			EMLA_LKNE			EMLA_LSHN			EMLA_LANK			EMLA_LHEE			EMLA_LTOE			EMLA_RTHI			EMLA_RKNE			EMLA_RSHN			EMLA_RANK			EMLA_RHEE			EMLA_RTOE		
		X1	Y1	Z1	X2	Y2	Z2	X3	Y3	Z3	X4	Y4	Z4	X5	Y5	Z5	X6	Y6	Z6	X7	Y7	Z7	X8	Y8	Z8	X9	Y9	Z9	X10	Y10	Z10	X11	Y11	Z11	X12	Y12	Z12	X13	Y13	Z13	X14	Y14	Z14	X15	Y15	Z15	X16	Y16	Z16	X17	Y17	Z17	X18	Y18	Z18	X19	Y19	Z19	X20	Y20	Z20	X21	Y21	Z21	X22	Y22	Z22	X23	Y23	Z23	X24	Y24	Z24	X25	Y25	Z25	X26	Y26	Z26	X27	Y27	Z27	X28	Y28	Z28	X29	Y29	Z29	X30	Y30	Z30	X31	Y31	Z31	X32	Y32	Z32	X33	Y33	Z33	X34	Y34	Z34	X35	Y35	Z35	X36	Y36	Z36	X37	Y37	Z37	X38	Y38	Z38	X39	Y39	Z39	X40	Y40	Z40	X41	Y41	Z41
																																																																																																																												
40	1.8	299.10679	1552.2377	-1574.33502	129.52296	1533.1369	-1592.22565	323.79585	1586.33286	-1718.49548	131.42021	1568.02872	-1740.31616	309.91512	1340.81924	-1679.59991	160.42187	1337.58469	-1687.52914	317.78543	1414.23981	-1818.95477	158.66689	1411.74042	-1828.80798	249.31177	1255.67123	-1905.39063	230.71789	1267.11472	-1660.17029	224.13498	1161.86012	-1664.26025	438.44849	1363.86261	-1717.39685	495.90813	1182.86942	-1741.94687	511.56036	1038.84689	-1747.67685	499.22066	900.77637	-1744.17358	385.32707	765.68916	-1690.76294	455.12821	740.97939	-1734.43497	428.59127	704.89182	-1678.37097	43.50028	1382.78229	-1755.12466	-27.86103	1201.99745	-1809.81354	-49.94274	1074.2804	-1868.5585	-63.65607	984.48868	-1909.55338	-28.55203	787.03445	-1876.12549	-76.98596	805.88242	-1945.51559	-94.10294	754.24385	-1905.23987	332.54711	925.08629	-1751.33896	98.71535	944.18129	-1755.31891	305.39038	986.41243	-1949.45755	127.17315	982.67204	-1944.93149	342.79476	710.59776	-1994.17526	343.02032	499.92527	-2001.67282	308.51643	318.98998	-2031.78452	306.43091	160.6571	-2140.78003	240.10637	90.34799	-2219.22775	273.4339	75.40318	-2023.3345	62.0997	667.86469	-1840.20813	53.20385	525.67791	-1663.59238	117.66283	301.39576	-1639.8259	99.59085	136.27739	-1719.14047	167.37625	84.83043	-1763.94867	107.62712	91.87033	-1572.81693
41	1.833	295.06836	1536.23093	-1531.99097	125.98847	1516.18164	-1551.03363	320.45853	1572.79602	-1675.97412	128.08807	1553.37784	-1698.57193	306.38588	1325.6311	-1640.57709	157.51497	1322.7359	-1650.439	316.75741	1403.32657	-1778.01239	157.19278	1400.67169	-1789.94385	249.35467	1247.12723	-1869.9913	227.7725	1251.50208	-1624.34097	221.71144	1146.45256	-1631.38336	435.308	1349.8407	-1675.16693	494.36131	1169.61319	-1699.93423	510.98274	1025.47127	-1706.78589	496.73389	887.00851	-1703.63708	379.07448	753.8195	-1652.15332	449.6648	728.04024	-1694.33319	421.77769	693.2634	-1638.63602	41.2828	1368.89511	-1718.01773	-29.00523	1189.50867	-1777.85965	-51.21935	1063.84987	-1840.94223	-64.14872	975.12459	-1884.34433	-30.0464	776.47423	-1855.09811	-76.61225	796.98891	-1925.11841	-94.70544	745.30479	-1886.59241	333.91689	914.27261	-1722.9248	100.868	931.68129	-1731.8985	304.16334	977.09305	-1920.62378	126.11367	971.819	-1914.5076	342.75227	707.05902	-1972.58667	342.95216	496.95011	-1989.16031	309.32671	317.51919	-2025.18646	306.72716	162.31218	-2138.33069	240.28713	94.14066	-2218.26736	271.84372	74.46084	-2022.84027	66.29258	660.94986	-1800.00519	55.85272	526.28681	-1616.12503	116.39812	304.77188	-1570.16983	94.23706	132.15147	-1629.50516	160.34203	75.56365	-1669.83871	105.17904	100.72076	-1478.80569
42	1.867	289.64819	1520.27878	-1487.47299	121.00604	1498.48816	-1507.38205	315.30586	1559.01382	-1630.97183	123.23173	1537.5618	-1654.56497	302.49224	1310.29343	-1598.60291	153.84141	1306.77261	-1609.92447	314.07887	1391.68182	-1733.78143	154.33204	1388.87115	-1747.57858	248.36422	1237.79419	-1830.86716	224.19085	1235.0441	-1584.89243	219.25747	1130.36224	-1595.14053	430.99995	1335.82321	-1630.24567	491.62174	1156.5419	-1655.45044	509.73095	1012.50984	-1664.60403	494.63486	873.76709	-1662.1489	374.81861	741.82823	-1612.49908	445.8215	715.37766	-1653.6615	416.78337	681.02303	-1598.32962	38.24791	1354.21097	-1677.17209	-31.13238	1176.28349	-1741.85471	-53.30467	1052.24525	-1808.45261	-65.49176	964.22928	-1853.98056	-31.73876	765.3566	-1827.37106	-76.53465	786.68793	-1898.26721	-95.02224	734.68788	-1861.47858	334.16382	902.07733	-1689.91333	101.4997	920.33195	-1697.99561	302.89396	966.66237	-1887.99072	124.53559	960.30083	-1880.31189	341.96163	704.92218	-1949.01886	343.97007	496.62609	-1976.97327	312.19959	319.10725	-2019.49417	308.35407	167.60786	-2137.29034	242.13562	101.57073	-2217.35291	271.89655	74.23359	-2023.08853	67.30904	655.65086	-1754.48563	56.83987	526.83334	-1565.7991	113.48989	309.3084	-1502.05795	88.13425	132.34735	-1544.74304	153.1718	71.41511	-1580.11856	98.8201	112.83992	-1391.71585
43	1.9	283.2789	1507.61169	-1440.40558	115.11074	1483.85254	-1460.70053	308.87325	1546.74377	-1583.96591	117.01748	1522.97455	-1607.87338	297.53057	1296.15494	-1552.46429	149.06424	1292.11853	-1565.42084	310.1211	1382.22824	-1686.14777	150.3298	1378.1633	-1701.38504	246.82611	1229.48532	-1787.64847	219.93931	1220.0795	-1541.33698	215.75737	1115.62576	-1554.44611	426.10924	1324.37103	-1582.04193	488.15372	1146.157	-1609.75906	508.98972	1002.79182	-1621.66656	493.78353	863.87497	-1620.31967	372.87056	732.57446	-1572.22595	444.06567	705.85838	-1613.21533	414.40498	671.50406	-1558.1218	34.07783	1341.23291	-1632.81281	-34.50436	1164.67178	-1702.11685	-56.0927	1041.72058	-1771.23642	-67.44582	954.24561	-1818.43857	-34.40318	755.17342	-1793.05878	-77.35435	777.1981	-1864.87335	-96.26006	724.76898	-1829.38812	333.78338	892.41852	-1653.71902	101.54764	909.72488	-1657.84424	299.58088	957.93793	-1852.11319	121.11662	950.37598	-1841.41876	341.19553	704.1378	-1919.04877	345.5909	497.10396	-1955.9964	314.76299	321.33709	-2006.15753	311.14796	175.65468	-2130.60104	244.85008	113.49341	-2213.51807	272.88418	74.00591	-2021.79733	65.50865	652.09335	-1706.05927	55.19906	526.9973	-1514.14856	111.02402	313.20026	-1439.28375	84.14927	134.19774	-1470.42572	148.60361	71.55928	-1503.61618	95.97406	121.57303	-1316.48621
44	1.933	275.93922	1499.31625	-1390.51865	107.98025	1474.86557	-1410.79636	301.45737	1538.00873	-1534.17496	109.78957	1513.54202	-1558.18893	291.29368	1287.41104	-1502.86835	143.00409	1282.27722	-1516.89911	303.93888	1376.52359	-1635.21393	143.80442	1371.22513	-1651.4035	242.32374	1224.9633	-1739.98825	214.50121	1210.48401	-1493.57956	211.8342	1106.2384	-1508.29712	419.48574	1317.69165	-1530.65765	485.41389	1140.73639	-1563.83469	509.84386	999.35509	-1578.38394	494.90566	859.71458	-1578.52173	373.51269	728.34679	-1534.03198	445.14099	701.81007	-1573.58032	414.90665	666.94359	-1518.58887	27.64599	1332.36099	-1583.55881	-38.85049	1157.14996	-1657.37381	-59.42736	1035.10391	-1728.5498	-69.94182	947.97409	-1776.78574	-37.57545	748.96599	-1752.00424	-78.98447	771.27625	-1824.71054	-98.81369	718.68439	-1789.59305	333.68141	885.98839	-1611.49429	101.35365	904.2038	-1610.84488	295.57983	951.47804	-1809.10294	117.55916	945.82954	-1795.64224	337.91286	702.77718	-1879.87549	346.4019	496.71272	-1923.14713	316.66044	323.43891	-1983.87375	314.21837	186.93821	-2118.35632	248.3239	131.37801	-2205.24124	274.1169	73.78755	-2019.21555	62.89901	649.42757	-1657.01462	52.95471	525.87349	-1463.95416	111.84005	313.09912	-1388.16223	85.02665	133.47268	-1415.33966	148.55483	70.98618	-1451.7836	101.90565	121.08786	-1262.16911
45	1.967	268.2736	1497.8894	-1339.64951	100.29023	1473.22052	-1358.9444	293.04394	1535.68192	-1483.70361	101.2851	1510.92178	-1506.52786	283.85155	1286.06964	-1449.49585	135.57304	1279.44786	-1464.53018	296.02654	1375.59174	-1582.34482	135.98039	1368.75488	-1598.98834	236.63769	1223.6824	-1687.60406	207.73174	1208.25165	-1440.74066	206.02707	1104.03481	-1455.49042	411.63532	1317.51419	-1477.24884	482.16995	1142.82188	-1515.12207	510.67734	1003.14819	-1534.34601	497.48108	862.99362	-1537.27356	377.27097	729.98123	-1495.00183	449.47163	704.53697	-1535.55725	419.2091	668.29185	-1481.17096	19.90161	1329.19342	-1531.19888	-44.74633	1153.94989	-1606.54175	-63.93235	1032.49802	-1679.03488	-73.73978	945.77209	-1728.1163	-40.16317	746.87035	-1704.84482	-81.50471	769.44031	-1777.63077	-101.98184	716.9886	-1742.56485	331.38329	882.90985	-1559.8204	98.41248	905.73776	-1556.65466	292.65923	947.2229	-1756.50833	114.54671	947.52655	-1741.96274	333.84499	701.82693	-1829.21082	346.04313	496.69643	-1876.12366	318.43359	327.2319	-1950.53925	316.329	204.31702	-2097.34726	249.82294	158.65662	-2187.69257	274.64733	73.23479	-2014.68933	62.80105	645.44785	-1609.67255	55.14088	518.55774	-1421.52512	115.77633	300.53684	-1357.11655	89.04644	121.49628	-1393.17337	150.92245	59.97023	-1434.6817	114.63564	102.89097	-1241.3018
46	2	260.22268	1505.45349	-1287.59476	92.2685	1481.09955	-1305.48096	284.13492	1541.68732	-1432.29584	92.15384	1517.21344	-1453.45367	276.45432	1293.51593	-1393.59436	127.35135	1284.89288	-1408.49045	287.12585	1381.01227	-1528.37509	127.20575	1371.54373	-1544.77173	230.25343	1226.47682	-1631.44028	200.73423	1215.00099	-1383.51395	199.89506	1110.51773	-1395.98145	404.44374	1325.55649	-1423.54187	477.92286	1152.8717	-1464.52652	509.44206	1014.58679	-1489.16183	500.13115	874.75845	-1496.74957	384.37443	736.47728	-1460.13123	456.92471	714.953	-1499.54254	427.53181	676.24146	-1446.25458	11.35711	1332.08328	-1476.99951	-51.58507	1155.43716	-1551.15128	-69.25709	1033.70071	-1623.19946	-78.46278	947.47726	-1672.5032	-43.16918	748.50922	-1650.60165	-85.4028	771.47705	-1723.13629	-105.00843	718.65326	-1688.02322	325.76244	886.07254	-1502.26883	95.29016	912.52388	-1499.35089	287.33215	947.78885	-1698.92532	108.56627	952.89139	-1684.6347	330.19772	700.44876	-1766.81427	347.82562	495.31116	-1809.94476	323.12111	332.69783	-1901.54068	317.78778	227.90073	-2061.86722	248.4761	195.25129	-2151.09543	273.65881	71.93445	-2006.92917	60.93828	646.95557	-1559.2395	56.43706	506.07475	-1376.24939	122.64357	290.40447	-1327.67426	94.24354	119.8436	-1382.46857	154.16704	64.76054	-1426.77277	114.74782	79.12521	-1229.79172
47	2.033	252.67227	1518.84689	-1234.85573	84.50938	1495.04715	-1251.39557	275.88642	1552.69409	-1380.29465	83.67242	1528.85971	-1399.96857	269.34212	1307.29706	-1336.95847	120.66118	1296.08063	-1351.41739	278.17974	1393.32947	-1472.47238	118.69064	1381.41113	-1487.96509	222.77359	1238.97911	-1575.09964	194.90187	1227.89131	-1325.55679	195.08638	1123.21098	-1335.69656	396.84093	1340.59021	-1368.13278	472.96486	1171.38962	-1414.79477	506.57108	1034.28505	-1443.51212	502.35264	895.06866	-1457.155	391.4035	751.30234	-1424.00497	466.39381	733.52859	-1465.10468	438.11466	691.6993	-1412.99377	3.52877	1341.39282	-1419.61563	-57.22737	1163.33244	-1491.28265	-73.30326	1040.36308	-1561.7128	-82.05266	954.32358	-1610.59479	-46.0271	755.28625	-1588.68927	-88.91912	778.3268	-1661.06476	-108.185	725.69633	-1625.66071	319.30136	898.01788	-1445.67627	88.53872	925.22209	-1441.77429	283.82601	954.28757	-1642.08603	105.51166	964.13017	-1627.95593	327.76878	693.25623	-1695.58151	355.82939	485.85163	-1718.52417	331.56715	332.67979	-1827.08801	320.72277	250.80555	-2000.0563	247.89953	238.36529	-2085.39505	272.35044	75.76889	-1988.89786	55.76936	656.12236	-1508.72177	54.80903	512.34909	-1338.2634	118.7524	286.87061	-1303.76831	92.89072	116.7587	-1370.30518	153.83788	68.27876	-1422.02942	113.00981	67.73121	-1224.18732
48	2.067	247.09576	1533.82431	-1183.10753	78.90891	1509.67865	-1198.27614	269.1287	1566.59958	-1329.01108	76.87892	1542.33017	-1347.06894	264.31089	1323.2814	-1283.6673	116.41755	1309.93195	-1294.73816	269.78897	1407.53769	-1420.41916	111.36934	1393.15628	-1432.44415	215.32244	1250.94376	-1520.13748	191.88751	1242.80952	-1269.38118	193.19593	1137.91252	-1279.72969	390.44991	1358.45261	-1317.03934	467.58717	1193.51341	-1364.21249	504.65103	1057.28401	-1398.33603	505.12222	917.88338	-1417.74872	399.03992	768.52928	-1390.63873	475.01431	755.43617	-1431.74194	447.77615	710.41466	-1381.49277	-2.08291	1353.78281	-1361.93573	-61.75708	1174.17404	-1428.18802	-76.96631	1050.20493	-1497.25754	-85.56142	963.33305	-1544.98001	-48.58699	764.45389	-1520.68863	-92.63934	786.65535	-1592.75024	-111.58137	734.79698	-1555.77347	314.83316	911.51184	-1391.00159	84.28169	937.0565	-1385.66208	277.25281	966.16272	-1586.69342	99.99381	978.16315	-1571.07697	331.01173	677.49367	-1614.74106	359.54247	472.03381	-1605.81146	332.21916	331.60271	-1725.65521	323.45718	276.56588	-1908.59604	250.85423	285.31759	-1983.68546	279.1942	94.8622	-1951.01929	53.33125	663.54149	-1470.30594	51.94337	504.52423	-1310.21332	119.28596	282.05233	-1290.58273	93.44702	117.20369	-1366.96716	153.94003	69.53178	-1421.11755	114.63469	65.59631	-1222.67891
